<svg xmlns="http://www.w3.org/2000/svg" viewBox="0 0 512 512" fill="#0c6574">
  <path d="M256 448l-30.164-27.211C118.718 322.442 48 258.61 48 179.095 48 114.221 97.918 64 162.4 64c36.399 0 70.717 16.742 93.6 43.947C278.882 80.742 313.199 64 349.6 64 414.082 64 464 114.221 464 179.095c0 79.516-70.719 143.348-177.836 241.694L256 448z"/>
  <path d="M256 360c-13.255 0-24-10.745-24-24v-80h-32c-13.255 0-24-10.745-24-24s10.745-24 24-24h32v-32c0-13.255 10.745-24 24-24s24 10.745 24 24v32h32c13.255 0 24 10.745 24 24s-10.745 24-24 24h-32v80c0 13.255-10.745 24-24 24z" fill="#fff"/>
</svg>
